<svg xmlns="http://www.w3.org/2000/svg" viewBox="0 0 160 160" shape-rendering="crispEdges">
  <rect width="160" height="160" fill="#10192f"/>
  <rect x="0" y="124" width="160" height="36" fill="#172747"/>
  <rect x="0" y="0" width="160" height="30" fill="#2b456d" opacity="0.45"/>
  <g transform="translate(0,0)">
    <rect x="50" y="0" width="60" height="10" fill="#f6efdb"/>
    <rect x="40" y="10" width="80" height="10" fill="#f6efdb"/>
    <rect x="30" y="20" width="100" height="10" fill="#f6efdb"/>
    <rect x="20" y="30" width="120" height="20" fill="#10192f"/>
    <rect x="20" y="50" width="120" height="10" fill="#f6efdb"/>
    <rect x="30" y="50" width="100" height="50" fill="#f4d8a7"/>
    <rect x="40" y="60" width="20" height="20" fill="#f6efdb"/>
    <rect x="100" y="60" width="20" height="20" fill="#f6efdb"/>
    <rect x="50" y="60" width="10" height="10" fill="#10192f"/>
    <rect x="100" y="60" width="10" height="10" fill="#10192f"/>
    <rect x="40" y="80" width="80" height="10" fill="#f6efdb"/>
    <rect x="60" y="90" width="40" height="10" fill="#ffb347"/>
    <rect x="40" y="100" width="80" height="10" fill="#f4d8a7"/>
    <rect x="50" y="110" width="60" height="10" fill="#a44d34"/>
    <rect x="60" y="120" width="40" height="10" fill="#72e2c3"/>
    <rect x="50" y="130" width="60" height="10" fill="#10192f"/>
  </g>
  <text x="80" y="154" text-anchor="middle" font-size="12" fill="#ffb347" font-family="Courier New, monospace">WOLFI</text>
</svg>